<svg xmlns="http://www.w3.org/2000/svg" width="16" height="16" viewBox="0 0 16 16">
  <metadata><?xpacket begin="﻿" id="W5M0MpCehiHzreSzNTczkc9d"?>
<x:xmpmeta xmlns:x="adobe:ns:meta/" x:xmptk="Adobe XMP Core 5.6-c138 79.159824, 2016/09/14-01:09:01        ">
   <rdf:RDF xmlns:rdf="http://www.w3.org/1999/02/22-rdf-syntax-ns#">
      <rdf:Description rdf:about=""/>
   </rdf:RDF>
</x:xmpmeta>
                                                                                                    
                                                                                                    
                                                                                                    
                                                                                                    
                                                                                                    
                                                                                                    
                                                                                                    
                                                                                                    
                                                                                                    
                                                                                                    
                                                                                                    
                                                                                                    
                                                                                                    
                                                                                                    
                                                                                                    
                                                                                                    
                                                                                                    
                                                                                                    
                                                                                                    
                                                                                                    
                           
<?xpacket end="w"?></metadata>
<defs>
    <style>
      .cls-1 {
        fill: #222;
        fill-rule: evenodd;
      }
    </style>
  </defs>
  <path id="bag_copy_2" data-name="bag copy 2" class="cls-1" d="M744,304H732a2,2,0,0,1-2-2l1-6a2.248,2.248,0,0,1,2-2h10a2,2,0,0,1,2,2l1,6A2,2,0,0,1,744,304Zm-0.988-8H732.988L732,302h11.99ZM741,298a1,1,0,0,1-1-1v-5a2,2,0,0,0-4,0v5a1,1,0,1,1-2,0v-5a4,4,0,0,1,8,0v5A1,1,0,0,1,741,298Z" transform="translate(-730 -288)"/>
</svg>
