<svg xmlns="http://www.w3.org/2000/svg" width="16" height="26" viewBox="0 0 16 26">
  <metadata><?xpacket begin="﻿" id="W5M0MpCehiHzreSzNTczkc9d"?>
<x:xmpmeta xmlns:x="adobe:ns:meta/" x:xmptk="Adobe XMP Core 5.6-c138 79.159824, 2016/09/14-01:09:01        ">
   <rdf:RDF xmlns:rdf="http://www.w3.org/1999/02/22-rdf-syntax-ns#">
      <rdf:Description rdf:about=""/>
   </rdf:RDF>
</x:xmpmeta>
                                                                                                    
                                                                                                    
                                                                                                    
                                                                                                    
                                                                                                    
                                                                                                    
                                                                                                    
                                                                                                    
                                                                                                    
                                                                                                    
                                                                                                    
                                                                                                    
                                                                                                    
                                                                                                    
                                                                                                    
                                                                                                    
                                                                                                    
                                                                                                    
                                                                                                    
                                                                                                    
                           
<?xpacket end="w"?></metadata>
<defs>
    <style>
      .cls-1 {
        fill: #ccc;
        fill-rule: evenodd;
      }
    </style>
  </defs>
  <path id="basket" class="cls-1" d="M947,1779h-0.246l-1.793,6.27h-0.016a0.985,0.985,0,0,1-.945.73h-8a0.985,0.985,0,0,1-.946-0.73h-0.016l-1.793-6.27H933a1,1,0,0,1,0-2h2.382l1.723-3.45,0.009,0.01A0.991,0.991,0,0,1,938,1773a1,1,0,0,1,1,1,0.953,0.953,0,0,1-.115.44l0.009,0.01-1.276,2.55h4.764l-1.277-2.55,0.009-.01A0.965,0.965,0,0,1,941,1774a1,1,0,0,1,1-1,0.988,0.988,0,0,1,.885.56l0.009-.01,1.724,3.45H947A1,1,0,0,1,947,1779Zm-10.246,5h6.491l1.429-5h-9.348Z" transform="translate(-932 -1773)"/>
</svg>
