<svg xmlns="http://www.w3.org/2000/svg" width="14" height="16" viewBox="0 0 14 16">
  <metadata><?xpacket begin="﻿" id="W5M0MpCehiHzreSzNTczkc9d"?>
<x:xmpmeta xmlns:x="adobe:ns:meta/" x:xmptk="Adobe XMP Core 5.6-c138 79.159824, 2016/09/14-01:09:01        ">
   <rdf:RDF xmlns:rdf="http://www.w3.org/1999/02/22-rdf-syntax-ns#">
      <rdf:Description rdf:about=""/>
   </rdf:RDF>
</x:xmpmeta>
                                                                                                    
                                                                                                    
                                                                                                    
                                                                                                    
                                                                                                    
                                                                                                    
                                                                                                    
                                                                                                    
                                                                                                    
                                                                                                    
                                                                                                    
                                                                                                    
                                                                                                    
                                                                                                    
                                                                                                    
                                                                                                    
                                                                                                    
                                                                                                    
                                                                                                    
                                                                                                    
                           
<?xpacket end="w"?></metadata>
<defs>
    <style>
      .cls-1 {
        fill-rule: evenodd;
        opacity: 0.2;
      }
    </style>
  </defs>
  <path id="gear" class="cls-1" d="M946.025,1817.71h0l-0.15.09A6.105,6.105,0,0,1,946,1819a5.929,5.929,0,0,1-.121,1.19l0.15,0.09,0,0.01a1.994,1.994,0,1,1-2.051,3.42h0l-0.174-.1a5.813,5.813,0,0,1-1.8,1.02V1825a2,2,0,0,1-4,0v-0.37a5.8,5.8,0,0,1-1.8-1.02l-0.174.1h0a1.994,1.994,0,1,1-2.05-3.42l0-.01,0.149-.09A5.929,5.929,0,0,1,934,1819a6.1,6.1,0,0,1,.12-1.2l-0.149-.09h0a1.994,1.994,0,1,1,2.05-3.42l0-.01,0.174,0.11a5.8,5.8,0,0,1,1.8-1.02V1813a2,2,0,0,1,4,0v0.37a5.813,5.813,0,0,1,1.8,1.02l0.174-.11,0,0.01A1.994,1.994,0,1,1,946.025,1817.71ZM940,1815a4,4,0,1,0,4,4A4,4,0,0,0,940,1815Zm0,6a2,2,0,1,1,2-2A2,2,0,0,1,940,1821Z" transform="translate(-933 -1811)"/>
</svg>
