<svg xmlns="http://www.w3.org/2000/svg" width="14" height="15" viewBox="0 0 14 15">
  <metadata><?xpacket begin="﻿" id="W5M0MpCehiHzreSzNTczkc9d"?>
<x:xmpmeta xmlns:x="adobe:ns:meta/" x:xmptk="Adobe XMP Core 5.6-c138 79.159824, 2016/09/14-01:09:01        ">
   <rdf:RDF xmlns:rdf="http://www.w3.org/1999/02/22-rdf-syntax-ns#">
      <rdf:Description rdf:about=""/>
   </rdf:RDF>
</x:xmpmeta>
                                                                                                    
                                                                                                    
                                                                                                    
                                                                                                    
                                                                                                    
                                                                                                    
                                                                                                    
                                                                                                    
                                                                                                    
                                                                                                    
                                                                                                    
                                                                                                    
                                                                                                    
                                                                                                    
                                                                                                    
                                                                                                    
                                                                                                    
                                                                                                    
                                                                                                    
                                                                                                    
                           
<?xpacket end="w"?></metadata>
<defs>
    <style>
      .cls-1 {
        fill-rule: evenodd;
        opacity: 0.2;
      }
    </style>
  </defs>
  <path id="power" class="cls-1" d="M944.949,1864.95a7,7,0,1,1-9.9-9.9l0.707-.71a1,1,0,0,1,1.414,1.42l-0.707.7a5,5,0,1,0,7.071,0l-0.707-.7a1,1,0,0,1,1.414-1.42l0.707,0.71A7,7,0,0,1,944.949,1864.95ZM940,1858a1,1,0,0,1-1-1v-4a1,1,0,0,1,2,0v4A1,1,0,0,1,940,1858Z" transform="translate(-933 -1852)"/>
</svg>
