<svg xmlns="http://www.w3.org/2000/svg" width="17.656" height="19.125" viewBox="0 0 17.656 19.125">
  <metadata><?xpacket begin="﻿" id="W5M0MpCehiHzreSzNTczkc9d"?>
<x:xmpmeta xmlns:x="adobe:ns:meta/" x:xmptk="Adobe XMP Core 5.6-c138 79.159824, 2016/09/14-01:09:01        ">
   <rdf:RDF xmlns:rdf="http://www.w3.org/1999/02/22-rdf-syntax-ns#">
      <rdf:Description rdf:about=""/>
   </rdf:RDF>
</x:xmpmeta>
                                                                                                    
                                                                                                    
                                                                                                    
                                                                                                    
                                                                                                    
                                                                                                    
                                                                                                    
                                                                                                    
                                                                                                    
                                                                                                    
                                                                                                    
                                                                                                    
                                                                                                    
                                                                                                    
                                                                                                    
                                                                                                    
                                                                                                    
                                                                                                    
                                                                                                    
                                                                                                    
                           
<?xpacket end="w"?></metadata>
<defs>
    <style>
      .cls-1 {
        fill: #1f4ba5;
        fill-rule: evenodd;
      }
    </style>
  </defs>
  <path id="Ellipse_1_copy_4" data-name="Ellipse 1 copy 4" class="cls-1" d="M12.912,16.527L10.128,7.5a1.232,1.232,0,0,0-2.352,0L4.992,16.527,2.184,7.287a0.938,0.938,0,0,0-1.032-.648,0.99,0.99,0,0,0-.72.312,0.908,0.908,0,0,0-.312.636,1.733,1.733,0,0,0,.072.54L3.6,18.112a1.546,1.546,0,0,0,.528.708,1.395,1.395,0,0,0,1.728,0,1.7,1.7,0,0,0,.552-0.732l2.544-7.944L11.5,18.088a1.7,1.7,0,0,0,.552.732,1.395,1.395,0,0,0,1.728,0,1.547,1.547,0,0,0,.528-0.708l3.408-9.984a1.735,1.735,0,0,0,.072-0.54,0.91,0.91,0,0,0-.312-0.636,0.991,0.991,0,0,0-.72-0.312,0.938,0.938,0,0,0-1.032.648ZM9,0A2,2,0,1,1,7,2,2,2,0,0,1,9,0Z" transform="translate(-0.125)"/>
</svg>
