<svg xmlns="http://www.w3.org/2000/svg" width="14" height="15" viewBox="0 0 14 15">
  <metadata><?xpacket begin="﻿" id="W5M0MpCehiHzreSzNTczkc9d"?>
<x:xmpmeta xmlns:x="adobe:ns:meta/" x:xmptk="Adobe XMP Core 5.6-c138 79.159824, 2016/09/14-01:09:01        ">
   <rdf:RDF xmlns:rdf="http://www.w3.org/1999/02/22-rdf-syntax-ns#">
      <rdf:Description rdf:about=""/>
   </rdf:RDF>
</x:xmpmeta>
                                                                                                    
                                                                                                    
                                                                                                    
                                                                                                    
                                                                                                    
                                                                                                    
                                                                                                    
                                                                                                    
                                                                                                    
                                                                                                    
                                                                                                    
                                                                                                    
                                                                                                    
                                                                                                    
                                                                                                    
                                                                                                    
                                                                                                    
                                                                                                    
                                                                                                    
                                                                                                    
                           
<?xpacket end="w"?></metadata>
<defs>
    <style>
      .cls-1 {
        fill: #222;
        fill-rule: evenodd;
      }
    </style>
  </defs>
  <path id="user_copy_7" data-name="user copy 7" class="cls-1" d="M873,48a1,1,0,0,1-1-1,4.975,4.975,0,0,0-1.587-3.637,4.378,4.378,0,0,1-6.827,0A4.974,4.974,0,0,0,862,47h0a1,1,0,1,1-2,0,6.952,6.952,0,0,1,2.535-5.35A6.91,6.91,0,0,1,862,39c0-3.313,2.238-6,5-6s5,2.687,5,6a6.911,6.911,0,0,1-.536,2.65A6.952,6.952,0,0,1,874,47h0A1,1,0,0,1,873,48Zm-6-13c-1.656,0-3,1.791-3,4s1.344,4,3,4,3-1.791,3-4S868.656,35,867,35Z" transform="translate(-860 -33)"/>
</svg>
