<svg xmlns="http://www.w3.org/2000/svg" width="14" height="26" viewBox="0 0 14 26">
  <metadata><?xpacket begin="﻿" id="W5M0MpCehiHzreSzNTczkc9d"?>
<x:xmpmeta xmlns:x="adobe:ns:meta/" x:xmptk="Adobe XMP Core 5.6-c138 79.159824, 2016/09/14-01:09:01        ">
   <rdf:RDF xmlns:rdf="http://www.w3.org/1999/02/22-rdf-syntax-ns#">
      <rdf:Description rdf:about=""/>
   </rdf:RDF>
</x:xmpmeta>
                                                                                                    
                                                                                                    
                                                                                                    
                                                                                                    
                                                                                                    
                                                                                                    
                                                                                                    
                                                                                                    
                                                                                                    
                                                                                                    
                                                                                                    
                                                                                                    
                                                                                                    
                                                                                                    
                                                                                                    
                                                                                                    
                                                                                                    
                                                                                                    
                                                                                                    
                                                                                                    
                           
<?xpacket end="w"?></metadata>
<defs>
    <style>
      .cls-1 {
        fill-rule: evenodd;
        opacity: 0.2;
      }
    </style>
  </defs>
  <path id="user" class="cls-1" d="M946,1707a1,1,0,0,1-1-1,4.991,4.991,0,0,0-1.586-3.64,4.372,4.372,0,0,1-6.827,0A4.992,4.992,0,0,0,935,1706h0a1,1,0,1,1-2,0,6.885,6.885,0,0,0,2-8c0-3.31,2.239-6,5-6s5,2.69,5,6a6.888,6.888,0,0,0,2,8h0A1,1,0,0,1,946,1707Zm-6-13c-1.656,0-3,1.79-3,4s1.344,4,3,4,3-1.79,3-4S941.656,1694,940,1694Z" transform="translate(-933 -1733)"/>
</svg>
